P2
# Imagen .pgm generada desde tp0.exe
24 7
15
0
0
0
0
0
0
0
0
15
15
0
0
0
0
3
3
0
0
0
0
0
0
0
0
0
0
0
0
0
0
11
11
0
0
0
0
7
7
7
0
7
7
0
0
0
0
0
0
3
3
0
7
0
0
0
0
0
0
0
0
0
0
0
0
0
11
0
0
0
0
15
15
0
15
15
0
0
11
11
11
0
0
0
0
0
0
0
0
11
11
11
0
0
15
15
0
3
3
0
7
0
0
0
0
0
0
0
0
0
0
0
0
0
11
0
0
11
0
0
0
0
0
0
0
0
0
11
11
0
0
0
0
7
7
7
0
7
7
0
0
0
0
0
0
0
0
0
0
0
0
0
0
15
15
0
0
0
0
3
3
0
0
0
0
0
0
0
0
